<mxfile host="app.diagrams.net" agent="Mozilla/5.0 (Windows NT 10.0; Win64; x64) AppleWebKit/537.36 (KHTML, like Gecko) Chrome/131.0.0.0 Safari/537.36 Edg/131.0.0.0" version="26.0.3">
  <diagram name="Страница — 1" id="6E6QcGe9JzF5QuHHeotZ">
    <mxGraphModel dx="685" dy="780" grid="1" gridSize="10" guides="1" tooltips="1" connect="1" arrows="1" fold="1" page="1" pageScale="1" pageWidth="1654" pageHeight="1169" math="0" shadow="0">
      <root>
        <mxCell id="0" />
        <mxCell id="1" parent="0" />
        <mxCell id="ZSIWOakFn0zqu2iiAX0d-3" value="" style="edgeStyle=orthogonalEdgeStyle;rounded=0;orthogonalLoop=1;jettySize=auto;html=1;" parent="1" source="ZSIWOakFn0zqu2iiAX0d-2" edge="1">
          <mxGeometry relative="1" as="geometry">
            <mxPoint x="640" y="150" as="targetPoint" />
          </mxGeometry>
        </mxCell>
        <mxCell id="ZSIWOakFn0zqu2iiAX0d-2" value="Начало" style="strokeWidth=2;html=1;shape=mxgraph.flowchart.start_2;whiteSpace=wrap;" parent="1" vertex="1">
          <mxGeometry x="600" y="30" width="80" height="70" as="geometry" />
        </mxCell>
        <mxCell id="ZSIWOakFn0zqu2iiAX0d-12" value="Конец" style="strokeWidth=2;html=1;shape=mxgraph.flowchart.start_2;whiteSpace=wrap;" parent="1" vertex="1">
          <mxGeometry x="600" y="460" width="80" height="70" as="geometry" />
        </mxCell>
        <mxCell id="ZSIWOakFn0zqu2iiAX0d-17" value="" style="edgeStyle=orthogonalEdgeStyle;rounded=0;orthogonalLoop=1;jettySize=auto;html=1;" parent="1" source="ZSIWOakFn0zqu2iiAX0d-14" target="ZSIWOakFn0zqu2iiAX0d-16" edge="1">
          <mxGeometry relative="1" as="geometry" />
        </mxCell>
        <mxCell id="ZSIWOakFn0zqu2iiAX0d-14" value="Читатель выбирает&amp;nbsp; периодическое издание" style="rounded=0;whiteSpace=wrap;html=1;" parent="1" vertex="1">
          <mxGeometry x="580" y="150" width="120" height="60" as="geometry" />
        </mxCell>
        <mxCell id="ZSIWOakFn0zqu2iiAX0d-16" value="Система подсчитывает&amp;nbsp; стоимость подписки" style="rounded=0;whiteSpace=wrap;html=1;" parent="1" vertex="1">
          <mxGeometry x="760" y="150" width="120" height="60" as="geometry" />
        </mxCell>
        <mxCell id="ZSIWOakFn0zqu2iiAX0d-40" value="" style="edgeStyle=orthogonalEdgeStyle;rounded=0;orthogonalLoop=1;jettySize=auto;html=1;" parent="1" source="ZSIWOakFn0zqu2iiAX0d-23" target="ZSIWOakFn0zqu2iiAX0d-35" edge="1">
          <mxGeometry relative="1" as="geometry" />
        </mxCell>
        <mxCell id="ZSIWOakFn0zqu2iiAX0d-23" value="Читатель выбирает способ оплаты " style="rounded=0;whiteSpace=wrap;html=1;" parent="1" vertex="1">
          <mxGeometry x="1110" y="280" width="120" height="60" as="geometry" />
        </mxCell>
        <mxCell id="ZSIWOakFn0zqu2iiAX0d-33" value="" style="edgeStyle=orthogonalEdgeStyle;rounded=0;orthogonalLoop=1;jettySize=auto;html=1;" parent="1" source="ZSIWOakFn0zqu2iiAX0d-26" target="ZSIWOakFn0zqu2iiAX0d-32" edge="1">
          <mxGeometry relative="1" as="geometry" />
        </mxCell>
        <mxCell id="ZSIWOakFn0zqu2iiAX0d-26" value="" style="strokeWidth=2;html=1;shape=mxgraph.flowchart.decision;whiteSpace=wrap;" parent="1" vertex="1">
          <mxGeometry x="930" y="280" width="100" height="60" as="geometry" />
        </mxCell>
        <mxCell id="ZSIWOakFn0zqu2iiAX0d-27" value="Читатель подтверждает |&lt;br/&gt;|  выбор подписки  " style="text;html=1;align=center;verticalAlign=middle;whiteSpace=wrap;rounded=0;" parent="1" vertex="1">
          <mxGeometry x="900" y="340" width="160" height="30" as="geometry" />
        </mxCell>
        <mxCell id="ZSIWOakFn0zqu2iiAX0d-29" style="edgeStyle=orthogonalEdgeStyle;rounded=0;orthogonalLoop=1;jettySize=auto;html=1;entryX=0.5;entryY=0;entryDx=0;entryDy=0;entryPerimeter=0;" parent="1" source="ZSIWOakFn0zqu2iiAX0d-16" target="ZSIWOakFn0zqu2iiAX0d-26" edge="1">
          <mxGeometry relative="1" as="geometry" />
        </mxCell>
        <mxCell id="ZSIWOakFn0zqu2iiAX0d-30" value="Нет" style="text;html=1;align=center;verticalAlign=middle;whiteSpace=wrap;rounded=0;" parent="1" vertex="1">
          <mxGeometry x="870" y="270" width="60" height="30" as="geometry" />
        </mxCell>
        <mxCell id="ZSIWOakFn0zqu2iiAX0d-31" value="Да" style="text;html=1;align=center;verticalAlign=middle;whiteSpace=wrap;rounded=0;" parent="1" vertex="1">
          <mxGeometry x="1030" y="270" width="60" height="30" as="geometry" />
        </mxCell>
        <mxCell id="ZSIWOakFn0zqu2iiAX0d-32" value="Заявка на подписку удалена" style="rounded=0;whiteSpace=wrap;html=1;" parent="1" vertex="1">
          <mxGeometry x="730" y="280" width="120" height="60" as="geometry" />
        </mxCell>
        <mxCell id="ZSIWOakFn0zqu2iiAX0d-34" style="edgeStyle=orthogonalEdgeStyle;rounded=0;orthogonalLoop=1;jettySize=auto;html=1;entryX=0.5;entryY=0;entryDx=0;entryDy=0;entryPerimeter=0;" parent="1" source="ZSIWOakFn0zqu2iiAX0d-32" target="ZSIWOakFn0zqu2iiAX0d-12" edge="1">
          <mxGeometry relative="1" as="geometry" />
        </mxCell>
        <mxCell id="ZSIWOakFn0zqu2iiAX0d-41" value="" style="edgeStyle=orthogonalEdgeStyle;rounded=0;orthogonalLoop=1;jettySize=auto;html=1;" parent="1" source="ZSIWOakFn0zqu2iiAX0d-35" target="ZSIWOakFn0zqu2iiAX0d-36" edge="1">
          <mxGeometry relative="1" as="geometry" />
        </mxCell>
        <mxCell id="ZSIWOakFn0zqu2iiAX0d-35" value=" Система инициирует платеж    " style="rounded=0;whiteSpace=wrap;html=1;" parent="1" vertex="1">
          <mxGeometry x="1110" y="410" width="120" height="60" as="geometry" />
        </mxCell>
        <mxCell id="ZSIWOakFn0zqu2iiAX0d-44" value="" style="edgeStyle=orthogonalEdgeStyle;rounded=0;orthogonalLoop=1;jettySize=auto;html=1;" parent="1" source="ZSIWOakFn0zqu2iiAX0d-36" target="ZSIWOakFn0zqu2iiAX0d-43" edge="1">
          <mxGeometry relative="1" as="geometry" />
        </mxCell>
        <mxCell id="ZSIWOakFn0zqu2iiAX0d-36" value=" Платеж подтвержден " style="rounded=0;whiteSpace=wrap;html=1;" parent="1" vertex="1">
          <mxGeometry x="925" y="410" width="120" height="60" as="geometry" />
        </mxCell>
        <mxCell id="ZSIWOakFn0zqu2iiAX0d-39" value="" style="endArrow=classic;html=1;rounded=0;entryX=0;entryY=0.5;entryDx=0;entryDy=0;exitX=1;exitY=0.5;exitDx=0;exitDy=0;exitPerimeter=0;" parent="1" source="ZSIWOakFn0zqu2iiAX0d-26" target="ZSIWOakFn0zqu2iiAX0d-23" edge="1">
          <mxGeometry width="50" height="50" relative="1" as="geometry">
            <mxPoint x="780" y="410" as="sourcePoint" />
            <mxPoint x="830" y="360" as="targetPoint" />
          </mxGeometry>
        </mxCell>
        <mxCell id="ZSIWOakFn0zqu2iiAX0d-43" value="Регистрация подписки" style="rounded=0;whiteSpace=wrap;html=1;" parent="1" vertex="1">
          <mxGeometry x="730" y="410" width="120" height="60" as="geometry" />
        </mxCell>
        <mxCell id="ZSIWOakFn0zqu2iiAX0d-45" style="edgeStyle=orthogonalEdgeStyle;rounded=0;orthogonalLoop=1;jettySize=auto;html=1;entryX=0.5;entryY=0;entryDx=0;entryDy=0;entryPerimeter=0;" parent="1" source="ZSIWOakFn0zqu2iiAX0d-43" target="ZSIWOakFn0zqu2iiAX0d-12" edge="1">
          <mxGeometry relative="1" as="geometry" />
        </mxCell>
      </root>
    </mxGraphModel>
  </diagram>
</mxfile>
